<?xml version="1.0" standalone="no"?>
<!DOCTYPE svg PUBLIC "-//W3C//DTD SVG 20010904//EN"
 "http://www.w3.org/TR/2001/REC-SVG-20010904/DTD/svg10.dtd">
<svg version="1.0" xmlns="http://www.w3.org/2000/svg"
 width="200.000000pt" height="200.000000pt" viewBox="0 0 200.000000 200.000000"
 preserveAspectRatio="xMidYMid meet">

<g transform="translate(0.000000,200.000000) scale(0.100000,-0.100000)"
fill="#000000" stroke="none">
<path d="M908 1403 c-21 -24 -288 -444 -288 -453 0 -20 33 -32 75 -27 64 7
153 54 277 146 l107 80 -51 123 c-27 68 -55 129 -60 136 -15 17 -42 15 -60 -5z"/>
<path d="M1122 1165 c-38 -17 -38 -23 8 -115 35 -69 83 -118 125 -126 52 -9
109 -1 113 17 4 20 -122 215 -148 229 -26 14 -59 12 -98 -5z"/>
<path d="M336 792 c-6 -10 -66 -196 -66 -206 0 -3 9 -6 19 -6 13 0 21 8 23 23
3 19 10 22 55 25 49 3 53 1 59 -22 4 -17 13 -26 25 -26 23 0 21 9 -21 135 -25
75 -29 80 -57 83 -17 2 -34 -1 -37 -6z m57 -79 l15 -53 -40 0 c-34 0 -39 3
-33 18 3 9 11 36 18 59 13 50 19 46 40 -24z"/>
<path d="M490 716 c0 -109 18 -136 90 -136 72 0 90 27 90 136 0 77 -2 84 -20
84 -18 0 -20 -7 -20 -83 0 -90 -8 -107 -50 -107 -42 0 -50 17 -50 107 0 76 -2
83 -20 83 -18 0 -20 -7 -20 -84z"/>
<path d="M710 690 c0 -91 3 -110 15 -110 17 0 16 -3 17 108 1 45 4 80 7 77 3
-4 15 -45 26 -93 l20 -87 35 0 34 0 25 100 26 100 3 -102 c2 -83 6 -103 17
-103 12 0 15 20 15 110 l0 110 -33 0 -33 0 -24 -95 c-13 -52 -27 -95 -31 -95
-3 0 -12 26 -18 58 -24 124 -28 132 -66 132 l-35 0 0 -110z"/>
<path d="M1027 780 c-36 -29 -52 -81 -37 -125 16 -50 53 -75 109 -75 87 1 137
82 100 163 -25 55 -122 76 -172 37z m117 -31 c53 -42 23 -139 -44 -139 -60 0
-95 62 -66 118 24 47 67 55 110 21z"/>
<path d="M1220 792 c0 -4 15 -53 33 -107 34 -100 34 -100 67 -100 33 0 33 0
67 100 39 116 39 115 14 115 -14 0 -24 -19 -46 -96 -16 -52 -31 -97 -35 -99
-3 -2 -18 41 -34 96 -23 79 -33 99 -47 99 -11 0 -19 -4 -19 -8z"/>
<path d="M1440 690 c0 -103 1 -110 20 -110 19 0 20 7 20 110 0 103 -1 110 -20
110 -19 0 -20 -7 -20 -110z"/>
<path d="M1544 766 c-39 -39 -45 -89 -17 -136 49 -83 191 -59 209 36 14 73
-38 134 -113 134 -38 0 -50 -5 -79 -34z m131 -21 c48 -48 15 -135 -51 -135
-40 0 -74 36 -74 77 0 41 38 83 75 83 14 0 37 -11 50 -25z"/>
</g>
</svg>
